<svg width="64" height="64" viewBox="0 0 64 64" fill="none" xmlns="http://www.w3.org/2000/svg">
<g opacity="0.5" filter="url(#filter0_d_4_795)">
<rect x="2" y="1" width="60" height="60" rx="30" fill="#0B060C"/>
</g>
<g clip-path="url(#clip0_4_795)">
<path d="M43.531 24.3419C42.7117 18.4132 36.8035 15.3944 30.4998 16.1013C25.516 16.66 20.5473 20.6894 20.341 26.4513C20.2154 29.9687 21.2129 32.6069 24.5598 33.3494C26.0092 30.7844 24.0929 30.2238 23.7929 28.3657C22.5648 20.7719 32.5529 15.5857 37.7842 20.8919C41.4067 24.5669 39.0198 35.8657 33.1848 34.6901C27.5954 33.5688 35.9223 24.5745 31.4617 22.8101C27.8354 21.3738 25.9098 27.1976 27.6292 30.0926C26.6204 35.0707 24.4492 39.7582 25.3285 46.0001C28.1785 43.9301 29.1404 39.972 29.9279 35.8414C31.3604 36.7132 32.1273 37.6151 33.9536 37.7557C40.6886 38.2788 44.4554 31.0319 43.531 24.3419Z" fill="white"/>
</g>
<defs>
<filter id="filter0_d_4_795" x="0" y="0" width="64" height="64" filterUnits="userSpaceOnUse" color-interpolation-filters="sRGB">
<feFlood flood-opacity="0" result="BackgroundImageFix"/>
<feColorMatrix in="SourceAlpha" type="matrix" values="0 0 0 0 0 0 0 0 0 0 0 0 0 0 0 0 0 0 127 0" result="hardAlpha"/>
<feOffset dy="1"/>
<feGaussianBlur stdDeviation="1"/>
<feColorMatrix type="matrix" values="0 0 0 0 0 0 0 0 0 0 0 0 0 0 0 0 0 0 0.25 0"/>
<feBlend mode="normal" in2="BackgroundImageFix" result="effect1_dropShadow_4_795"/>
<feBlend mode="normal" in="SourceGraphic" in2="effect1_dropShadow_4_795" result="shape"/>
</filter>
<clipPath id="clip0_4_795">
<rect width="30" height="30" fill="white" transform="translate(17 16)"/>
</clipPath>
</defs>
</svg>
