<svg width="64" height="64" viewBox="0 0 64 64" fill="none" xmlns="http://www.w3.org/2000/svg">
<g opacity="0.5" filter="url(#filter0_d_4_796)">
<rect x="2" y="1" width="60" height="60" rx="30" fill="#0B060C"/>
</g>
<g clip-path="url(#clip0_4_796)">
<path d="M45.5732 32.9314C45.6575 32.322 45.7044 31.7014 45.7044 31.0714C45.7044 23.5039 39.5338 17.367 31.925 17.367C31.1694 17.367 30.4269 17.4289 29.7069 17.547C28.4131 16.7032 26.8737 16.2139 25.2181 16.2139C20.6769 16.2139 17 19.8964 17 24.4358C17 26.0876 17.4856 27.6232 18.3237 28.9114C18.2112 29.6164 18.1531 30.3364 18.1531 31.0714C18.1531 38.6408 24.3181 44.7758 31.9269 44.7758C32.7857 44.7758 33.6219 44.6914 34.4338 44.5451C35.6957 45.3289 37.1863 45.7845 38.7782 45.7845C43.3213 45.7845 47.0001 42.1039 47.0001 37.5626C47.0019 35.847 46.4787 34.2495 45.5732 32.9314ZM33.2169 41.1702C28.8387 41.3989 26.7912 40.4277 24.9144 38.6689C22.8181 36.702 23.66 34.4595 25.3681 34.3452C27.0744 34.2308 28.0982 36.2783 29.0094 36.8483C29.9188 37.4164 33.38 38.7102 35.2082 36.6195C37.1994 34.3451 33.8844 33.1677 31.4544 32.8114C27.9857 32.2995 23.6057 30.4227 23.9469 26.7233C24.2882 23.0295 27.0857 21.1321 30.0313 20.8658C33.7851 20.5245 36.2301 21.4339 38.1631 23.0839C40.3981 24.9908 39.1888 27.1208 37.7656 27.2914C36.3444 27.462 34.7543 24.1564 31.625 24.1077C28.4 24.057 26.2213 27.4639 30.2019 28.4314C34.1844 29.3989 38.4462 29.7964 39.9856 33.4358C41.5231 37.0751 37.5969 40.9414 33.2169 41.1702Z" fill="white"/>
</g>
<defs>
<filter id="filter0_d_4_796" x="0" y="0" width="64" height="64" filterUnits="userSpaceOnUse" color-interpolation-filters="sRGB">
<feFlood flood-opacity="0" result="BackgroundImageFix"/>
<feColorMatrix in="SourceAlpha" type="matrix" values="0 0 0 0 0 0 0 0 0 0 0 0 0 0 0 0 0 0 127 0" result="hardAlpha"/>
<feOffset dy="1"/>
<feGaussianBlur stdDeviation="1"/>
<feColorMatrix type="matrix" values="0 0 0 0 0 0 0 0 0 0 0 0 0 0 0 0 0 0 0.25 0"/>
<feBlend mode="normal" in2="BackgroundImageFix" result="effect1_dropShadow_4_796"/>
<feBlend mode="normal" in="SourceGraphic" in2="effect1_dropShadow_4_796" result="shape"/>
</filter>
<clipPath id="clip0_4_796">
<rect width="30" height="30" fill="white" transform="translate(17 16)"/>
</clipPath>
</defs>
</svg>
