<svg width="64" height="64" viewBox="0 0 64 64" fill="none" xmlns="http://www.w3.org/2000/svg">
<g opacity="0.5" filter="url(#filter0_d_4_797)">
<rect x="2" y="1" width="60" height="60" rx="30" fill="#0B060C"/>
</g>
<g clip-path="url(#clip0_4_797)">
<path d="M46.7439 25.3362C46.577 23.3393 45.3863 20.821 42.9393 20.731C36.1064 20.2715 28.0116 20.1459 21.055 20.731C18.8967 20.9729 17.4173 23.6017 17.2561 25.5987C16.9148 29.7933 16.9148 32.1803 17.2561 36.3749C17.4192 38.3719 18.8612 41.0158 21.0588 41.2933C28.0979 41.7527 36.1533 41.8183 42.9431 41.2933C45.0732 40.9239 46.5826 38.3719 46.7458 36.3749C47.0851 32.1785 47.0851 29.5308 46.7439 25.3362ZM28.2478 36.3074V25.5537L37.6233 30.9315L28.2478 36.3074Z" fill="white"/>
</g>
<defs>
<filter id="filter0_d_4_797" x="0" y="0" width="64" height="64" filterUnits="userSpaceOnUse" color-interpolation-filters="sRGB">
<feFlood flood-opacity="0" result="BackgroundImageFix"/>
<feColorMatrix in="SourceAlpha" type="matrix" values="0 0 0 0 0 0 0 0 0 0 0 0 0 0 0 0 0 0 127 0" result="hardAlpha"/>
<feOffset dy="1"/>
<feGaussianBlur stdDeviation="1"/>
<feColorMatrix type="matrix" values="0 0 0 0 0 0 0 0 0 0 0 0 0 0 0 0 0 0 0.25 0"/>
<feBlend mode="normal" in2="BackgroundImageFix" result="effect1_dropShadow_4_797"/>
<feBlend mode="normal" in="SourceGraphic" in2="effect1_dropShadow_4_797" result="shape"/>
</filter>
<clipPath id="clip0_4_797">
<rect width="30" height="30" fill="white" transform="translate(17 16)"/>
</clipPath>
</defs>
</svg>
